<svg width="1400" height="900" viewBox="0 0 1400 900" fill="none" xmlns="http://www.w3.org/2000/svg">
  <rect width="1400" height="900" fill="#f6f4f1" />
  <g filter="url(#blur)">
    <ellipse cx="420" cy="520" rx="320" ry="280" fill="url(#paint0_linear)" fill-opacity="0.55" />
    <ellipse cx="1000" cy="340" rx="260" ry="240" fill="url(#paint1_linear)" fill-opacity="0.4" />
    <circle cx="860" cy="640" r="220" fill="url(#paint2_linear)" fill-opacity="0.45" />
  </g>
  <path
    d="M480 420c20-70 84-102 152-82 56 16 92 56 118 112 28 62 78 120 156 124 60 4 112-26 140-86"
    stroke="#2c2c2c"
    stroke-width="3"
    stroke-linecap="round"
    opacity="0.14"
  />
  <path
    d="M500 456c24-48 70-74 124-66 48 7 82 40 106 82 28 48 68 94 128 104 48 8 92-12 122-52"
    stroke="#1d1d1d"
    stroke-width="2.5"
    stroke-linecap="round"
    opacity="0.18"
  />
  <defs>
    <filter id="blur" x="-220" y="-220" width="1840" height="1440" filterUnits="userSpaceOnUse" color-interpolation-filters="sRGB">
      <feGaussianBlur stdDeviation="140" />
    </filter>
    <linearGradient id="paint0_linear" x1="200" y1="240" x2="640" y2="760" gradientUnits="userSpaceOnUse">
      <stop stop-color="#f2dec8" />
      <stop offset="1" stop-color="#d0b183" />
    </linearGradient>
    <linearGradient id="paint1_linear" x1="850" y1="140" x2="1170" y2="480" gradientUnits="userSpaceOnUse">
      <stop stop-color="#e8e1d8" />
      <stop offset="1" stop-color="#cab796" />
    </linearGradient>
    <linearGradient id="paint2_linear" x1="720" y1="470" x2="1000" y2="820" gradientUnits="userSpaceOnUse">
      <stop stop-color="#d6c09b" />
      <stop offset="1" stop-color="#b18b57" />
    </linearGradient>
  </defs>
</svg>


